<svg xmlns="http://www.w3.org/2000/svg" width="33.985" height="33.985" viewBox="0 0 33.985 33.985">
  <g id="technical-support" transform="translate(0 0.001)">
    <path id="Caminho_1" data-name="Caminho 1" d="M5.977,26.281a2.771,2.771,0,0,0-1.339.342A15.672,15.672,0,0,1,20.112,1.638a.664.664,0,0,0,.263-1.3A17.119,17.119,0,0,0,16.992,0,16.992,16.992,0,0,0,3.656,27.523a2.789,2.789,0,1,0,2.321-1.241ZM7.009,30.1a1.46,1.46,0,1,1,.428-1.032A1.45,1.45,0,0,1,7.009,30.1Zm0,0" transform="translate(0)" fill="#fff"/>
    <path id="Caminho_2" data-name="Caminho 2" d="M214.7,36.384a2.782,2.782,0,1,0-.981.9,15.672,15.672,0,0,1-15.444,24.991.664.664,0,1,0-.261,1.3,17.13,17.13,0,0,0,3.35.33A16.992,16.992,0,0,0,214.7,36.384Zm-3.353-.513a1.461,1.461,0,1,1,1.032.428A1.451,1.451,0,0,1,211.35,35.871Zm0,0" transform="translate(-184.376 -29.924)" fill="#fff"/>
    <path id="Caminho_3" data-name="Caminho 3" d="M83.327,97.5a.664.664,0,0,0,.664.664h4.15A.664.664,0,0,0,88.8,97.5V96.21A10.394,10.394,0,0,0,91.3,95.178l.909.909a.664.664,0,0,0,.939,0l2.934-2.936a.664.664,0,0,0,0-.939l-.908-.907A10.394,10.394,0,0,0,96.2,88.813h1.282a.664.664,0,0,0,.664-.664V84a.664.664,0,0,0-.664-.664H96.2a10.4,10.4,0,0,0-1.032-2.491l.9-.9a.664.664,0,0,0,0-.939l-2.936-2.934a.664.664,0,0,0-.939,0l-.9.9A10.4,10.4,0,0,0,88.8,75.939V74.664A.664.664,0,0,0,88.141,74H83.99a.664.664,0,0,0-.664.664v1.275a10.385,10.385,0,0,0-2.491,1.032l-.9-.9a.664.664,0,0,0-.939,0L76.06,79a.664.664,0,0,0,0,.939l.9.9a10.392,10.392,0,0,0-1.032,2.491H74.65a.664.664,0,0,0-.664.664l0,4.15a.663.663,0,0,0,.664.664H75.93A10.4,10.4,0,0,0,76.962,91.3l-.907.907a.664.664,0,0,0,0,.939l2.934,2.936a.664.664,0,0,0,.469.195h0a.664.664,0,0,0,.469-.194l.908-.909a10.4,10.4,0,0,0,2.491,1.032ZM81.1,93.782a.664.664,0,0,0-.83.088l-.808.808-2-2,.807-.808a.664.664,0,0,0,.088-.829A9.085,9.085,0,0,1,77.1,88.01a.664.664,0,0,0-.649-.524h-1.14l0-2.823h1.139a.664.664,0,0,0,.649-.524A9.086,9.086,0,0,1,78.358,81.1a.664.664,0,0,0-.088-.829l-.8-.8,2-2,.8.8a.664.664,0,0,0,.83.088A9.082,9.082,0,0,1,84.13,77.11a.664.664,0,0,0,.524-.649V75.328h2.823v1.133A.663.663,0,0,0,88,77.11a9.089,9.089,0,0,1,3.034,1.257.663.663,0,0,0,.829-.088l.8-.8,2,2-.8.8a.664.664,0,0,0-.088.83,9.092,9.092,0,0,1,1.257,3.034.663.663,0,0,0,.649.524H96.82v2.823H95.679a.664.664,0,0,0-.649.524,9.084,9.084,0,0,1-1.257,3.034.664.664,0,0,0,.088.83l.807.807-2,2-.808-.808a.664.664,0,0,0-.83-.088A9.092,9.092,0,0,1,88,95.039a.664.664,0,0,0-.524.649v1.145H84.654V95.688a.664.664,0,0,0-.524-.649A9.086,9.086,0,0,1,81.1,93.782Zm0,0" transform="translate(-69.074 -69.089)" fill="#fff"/>
    <path id="Caminho_4" data-name="Caminho 4" d="M184.34,178.856a5.485,5.485,0,1,0-5.485,5.485A5.491,5.491,0,0,0,184.34,178.856Zm-9.642,0a4.157,4.157,0,1,1,4.157,4.157A4.162,4.162,0,0,1,174.7,178.856Zm0,0" transform="translate(-161.864 -161.864)" fill="#fff"/>
    <path id="Caminho_5" data-name="Caminho 5" d="M338.742,19.137a.664.664,0,1,0-.469-.194A.669.669,0,0,0,338.742,19.137Zm0,0" transform="translate(-315.638 -16.627)" fill="#fff"/>
    <path id="Caminho_6" data-name="Caminho 6" d="M155.023,474.359a.664.664,0,1,0,.469.194A.669.669,0,0,0,155.023,474.359Zm0,0" transform="translate(-144.114 -442.873)" fill="#fff"/>
  </g>
</svg>
